/vscmnt/brussel_pixiu_data/_data_brussel/112/vsc11236/PredSimResults/SUBJ09opt3D/weighted-trackIG/worker_01.mot
version=1
nRows=5
nColumns=50
inDegrees=yes
endheader
                time	         pelvis_tilt	         pelvis_list	     pelvis_rotation	           pelvis_tx	           pelvis_ty	           pelvis_tz	       hip_flexion_r	     hip_adduction_r	      hip_rotation_r	        knee_angle_r	       ankle_angle_r	         mtp_angle_r	       hip_flexion_l	     hip_adduction_l	      hip_rotation_l	        knee_angle_l	       ankle_angle_l	         mtp_angle_l	    lumbar_extension	      lumbar_bending	     lumbar_rotation	 ercspn_r/activation	 intobl_r/activation	 extobl_r/activation	    abd_r/activation	    add_r/activation	hamstrings_r/activation	bifemsh_r/activation	glut_max_r/activation	iliopsoas_r/activation	rect_fem_r/activation	  vasti_r/activation	gastroc_r/activation	 soleus_r/activation	tib_ant_r/activation	 ercspn_l/activation	 intobl_l/activation	 extobl_l/activation	    abd_l/activation	    add_l/activation	hamstrings_l/activation	bifemsh_l/activation	glut_max_l/activation	iliopsoas_l/activation	rect_fem_l/activation	  vasti_l/activation	gastroc_l/activation	 soleus_l/activation	tib_ant_l/activation	
          0.64356847	         -4.09212997	          0.81909396	         -7.87237216	          0.76584648	          0.99010246	          0.00231347	        -13.80062303	         -2.35783633	         -5.28574091	        -10.27055938	          3.94495273	         36.77139166	         28.53044075	         -1.51969509	         -8.48577518	         -6.18961759	          3.90894701	          0.24289502	        -13.47644113	          1.46656128	          7.33278491	          0.03038014	          0.01000001	          0.01000001	          0.02999174	          0.01214518	          0.01770950	          0.20595829	          0.01274246	          0.02946032	          0.01000007	          0.01000002	          0.30981924	          0.22207269	          0.01214525	          0.02750023	          0.15794989	          0.03331925	          0.01000000	          0.24179839	          0.05531665	          0.11921322	          0.08734907	          0.12525919	          0.01304360	          0.01000003	          0.01459338	          0.01000002	          0.32007323	
          0.65643984	         -4.13126046	          0.93483015	         -7.87027953	          0.78584682	          0.98789971	          0.00154624	        -14.41842735	         -2.70319955	         -5.72426402	        -11.05899847	          2.81604975	         38.36988616	         28.43989265	         -1.35264968	         -8.64766832	         -7.96886340	          3.50578602	          0.20815156	        -12.94830561	          1.00227556	          7.50959447	          0.02501409	          0.01000000	          0.01000005	          0.02469426	          0.01000008	          0.01712146	          0.16957969	          0.01049176	          0.02425677	          0.01000004	          0.01000003	          0.28139281	          0.19933266	          0.01000002	          0.02264284	          0.13005099	          0.02743403	          0.06780337	          0.19908943	          0.06124022	          0.09815644	          0.12009597	          0.10313449	          0.01073969	          0.01000003	          0.01214528	          0.01214522	          0.35899626	
          0.66931121	         -4.15138527	          1.06452048	         -7.83564441	          0.80611714	          0.98602213	          0.00069355	        -14.83769042	         -3.08789018	         -6.18280706	        -12.24152826	          1.55395141	         39.91480035	         28.23825086	         -1.16954233	         -8.82125502	         -9.59494056	          2.94050718	          0.20040383	        -12.40617948	          0.52240631	          7.65182094	          0.02344755	          0.01000000	          0.01000001	          0.02033248	          0.01000002	          0.01409732	          0.13962663	          0.01000000	          0.04135954	          0.01000004	          0.01000001	          0.23482212	          0.16853819	          0.00999999	          0.02097418	          0.10707991	          0.02258832	          0.12227505	          0.21120666	          0.05435550	          0.08081895	          0.14931620	          0.08491771	          0.01000001	          0.01000002	          0.01000005	          0.01000000	          0.40315456	
          0.68218258	         -4.15433038	          1.19705480	         -7.76875868	          0.82629726	          0.98467088	         -0.00025794	        -14.95672431	         -3.50952261	         -6.65424601	        -13.96093197	          0.19415865	         41.24509123	         28.07442100	         -0.98429690	         -9.01360345	        -11.30508775	          2.38955914	          0.16783997	        -11.89314246	          0.03934340	          7.75740495	          0.07769875	          0.01000001	          0.01000000	          0.01674112	          0.02568534	          0.02904906	          0.11496422	          0.01000001	          0.03405428	          0.01000003	          0.01000003	          0.19334517	          0.13876906	          0.00999999	          0.02990926	          0.08816624	          0.01859852	          0.17186261	          0.24201007	          0.05407575	          0.06654379	          0.15042360	          0.06991858	          0.01000002	          0.07996905	          0.01000004	          0.01000003	          0.42520281	
          0.69505395	         -4.14231498	          1.33375551	         -7.67816941	          0.84615894	          0.98400084	         -0.00129317	        -14.70239797	         -3.97854800	         -7.14576590	        -16.31053447	         -1.23526106	         42.14719269	         27.96786254	         -0.79379683	         -9.17786908	        -13.16383265	          2.16322384	          0.12863022	        -11.42981795	         -0.44822580	          7.83024855	          0.09296328	          0.01000002	          0.01000000	          0.01378412	          0.11576838	          0.03678568	          0.09465798	          0.01000000	          0.04608897	          0.01000001	          0.01000000	          0.15919435	          0.11425809	          0.01000000	          0.02642512	          0.07259332	          0.01531344	          0.19565572	          0.25832636	          0.05159474	          0.05479008	          0.17386354	          0.05756876	          0.01000001	          0.18044688	          0.01000004	          0.01000002	          0.42716611	
